<?xml version="1.0" standalone="no"?>
<!DOCTYPE svg PUBLIC "-//W3C//DTD SVG 20010904//EN"
 "http://www.w3.org/TR/2001/REC-SVG-20010904/DTD/svg10.dtd">
<svg version="1.0" xmlns="http://www.w3.org/2000/svg"
 width="519.000000pt" height="791.000000pt" viewBox="0 0 519.000000 791.000000"
 preserveAspectRatio="xMidYMid meet">

<g transform="translate(0.000000,791.000000) scale(0.100000,-0.100000)"
fill="#000000" stroke="none">
<path d="M2985 7858 c-6 -20 -8 -20 -12 -5 -6 21 -19 22 -27 2 -3 -8 -10 -14
-15 -13 -6 2 -21 -10 -34 -26 l-23 -28 -72 16 c-92 21 -303 21 -390 1 -78 -19
-174 -59 -229 -96 l-43 -28 -43 19 c-35 16 -50 17 -79 10 -33 -9 -36 -14 -42
-55 -8 -52 -42 -137 -98 -249 -23 -45 -60 -137 -83 -206 -40 -121 -42 -129
-40 -240 2 -83 7 -127 20 -157 9 -24 20 -43 24 -43 4 0 6 28 5 63 -3 59 -3 60
7 22 5 -22 9 -94 9 -159 -1 -98 2 -125 17 -153 l18 -33 11 32 c12 36 44 52 44
22 0 -45 14 5 26 93 13 89 11 137 -3 85 -3 -12 -12 -22 -21 -22 -12 0 -14 11
-9 68 6 64 6 66 -8 37 -14 -28 -14 -24 -9 58 6 88 4 94 -30 88 -4 -1 -5 15 -2
35 5 24 4 34 -3 29 -17 -10 -13 15 13 93 40 116 45 118 46 22 0 -118 21 -206
76 -321 l47 -98 -22 -168 c-12 -92 -29 -213 -36 -268 -11 -73 -35 -327 -35
-360 0 -2 -8 -5 -19 -8 -10 -2 -21 -17 -25 -33 -10 -37 -119 -263 -140 -289
l-17 -20 3 20 c2 11 -2 19 -9 18 -6 -1 -17 4 -23 12 -7 8 -21 15 -31 15 -11 0
-19 5 -19 11 0 5 5 7 10 4 6 -3 10 -1 10 4 0 6 -7 11 -15 11 -7 0 -19 8 -24
18 -6 9 -11 13 -11 7 -1 -23 -20 23 -20 50 l-1 30 -20 -37 c-11 -21 -24 -38
-29 -38 -13 0 -13 3 10 90 10 41 18 76 16 77 -2 2 -29 -70 -61 -159 -136 -384
-211 -569 -231 -570 -15 -1 -57 -111 -195 -516 -22 -63 -62 -153 -94 -206 -58
-99 -114 -223 -139 -307 -14 -46 -14 -54 0 -78 14 -25 13 -31 -29 -126 -24
-55 -57 -138 -72 -185 -15 -47 -42 -119 -60 -160 -32 -70 -87 -243 -125 -390
-10 -36 -20 -103 -22 -150 l-6 -85 25 75 c58 180 93 251 93 191 0 -17 -31
-194 -45 -258 -5 -21 -1 -23 30 -23 25 0 35 4 35 16 0 14 2 14 16 -1 9 -9 14
-25 11 -35 -3 -11 -2 -18 3 -15 4 3 10 -4 13 -15 3 -11 16 -24 29 -29 12 -6
19 -10 13 -10 -5 -1 6 -9 25 -20 19 -10 37 -27 39 -37 2 -11 17 -34 33 -53 33
-37 33 -37 -6 -147 -37 -103 -57 -228 -67 -419 -10 -194 -1 -290 36 -392 48
-131 28 -173 -83 -178 -23 -1 -45 -4 -48 -8 -10 -10 -57 4 -71 21 -9 12 -8 4
3 -23 29 -72 28 -83 -5 -46 -38 43 -97 155 -128 241 -12 36 -23 57 -23 47 0
-27 -41 -120 -58 -134 -8 -7 -19 -10 -25 -6 -7 4 -7 -14 -2 -53 11 -86 11 -93
0 -94 -14 -2 -23 36 -24 105 -1 49 -4 57 -13 41 -23 -40 20 -283 63 -360 10
-17 9 -17 -16 2 -41 33 -202 237 -231 294 -61 120 -104 294 -117 468 -3 42 -4
42 -5 -10 -3 -122 42 -317 104 -447 63 -132 292 -392 345 -393 8 0 27 -18 44
-40 41 -56 115 -117 178 -146 48 -21 217 -64 255 -64 17 0 8 13 -11 16 -53 8
-185 38 -206 47 -46 20 -138 85 -165 118 -22 26 -24 34 -14 46 7 8 17 25 23
36 6 12 40 36 75 53 61 29 70 30 137 24 97 -9 103 -16 103 -106 0 -84 15 -164
36 -190 12 -16 12 -13 -1 18 -21 53 -29 164 -16 233 12 67 47 144 86 190 l25
30 -2 -275 c-1 -151 2 -340 7 -420 4 -80 7 -194 6 -255 -2 -117 23 -273 55
-341 46 -96 167 -120 321 -62 70 26 83 46 83 131 0 62 -5 79 -49 171 -49 100
-91 220 -91 258 0 10 -12 45 -27 76 -25 53 -27 69 -31 214 -5 165 5 281 39
463 17 92 79 373 95 426 2 8 47 69 99 135 107 134 130 174 147 258 l12 58 23
-68 c12 -38 20 -54 17 -36 -4 25 -1 36 16 50 l21 17 -25 80 c-25 83 -51 201
-62 293 -8 67 -18 57 -33 -35 -13 -73 -35 -111 -47 -79 -3 9 -2 55 4 104 6 48
9 88 7 90 -1 2 -12 -30 -24 -70 -17 -61 -20 -66 -16 -28 19 174 69 509 106
705 11 61 24 135 29 165 4 30 18 96 29 145 12 50 23 99 26 111 4 17 10 19 40
16 19 -2 35 -6 35 -7 0 -2 -7 -32 -15 -67 -28 -123 -75 -493 -87 -683 -23
-385 31 -747 157 -1057 14 -34 25 -64 25 -66 0 -3 -12 5 -28 19 -15 13 -5 0
23 -29 27 -28 50 -52 51 -52 1 0 -13 30 -32 68 -73 146 -137 383 -170 627 -20
149 -23 450 -5 635 11 121 62 469 81 556 l11 51 98 5 c63 3 109 11 131 21 18
10 34 16 36 14 3 -2 29 -68 124 -307 69 -175 139 -415 189 -645 61 -279 93
-409 119 -480 146 -391 164 -432 257 -580 105 -167 254 -473 327 -670 96 -260
111 -314 106 -388 -4 -60 -47 -190 -105 -317 -34 -74 -38 -109 -23 -180 14
-66 30 -83 105 -115 56 -23 172 -31 245 -15 83 18 100 40 100 132 0 68 1 69
30 79 36 13 40 32 5 23 -15 -4 -25 -2 -25 5 0 14 35 32 45 23 5 -4 6 -2 3 3
-4 6 -9 62 -12 125 -6 99 -11 123 -35 170 -15 30 -31 80 -34 110 -3 30 -17 80
-30 110 -14 30 -38 107 -52 170 -33 138 -184 602 -233 715 -19 44 -67 141
-107 215 -112 207 -130 261 -150 430 -9 80 -23 174 -30 210 -8 36 -33 166 -55
290 -46 251 -87 448 -129 620 -15 63 -26 117 -24 119 2 3 20 -5 41 -16 20 -11
54 -26 74 -32 32 -11 37 -17 41 -49 l4 -37 1 41 2 40 -56 18 c-36 11 -69 31
-95 57 -50 50 -52 75 -1 27 72 -70 158 -98 298 -98 120 0 221 30 326 97 25 15
37 19 29 10 -8 -11 -9 -17 -2 -17 6 0 18 11 27 25 14 22 15 32 5 63 -7 20 -16
60 -20 87 -5 28 -41 184 -80 348 -79 328 -172 782 -190 922 -6 50 -16 125 -22
167 -5 43 -10 179 -11 303 0 205 -2 227 -18 238 -17 12 -17 18 -4 97 7 47 23
116 34 155 30 105 27 188 -11 263 -37 76 -78 112 -125 112 -44 0 -95 50 -113
110 -10 34 -16 40 -32 35 -17 -6 -19 -1 -18 37 l0 43 17 -25 c29 -45 92 -100
143 -125 27 -14 49 -23 49 -19 0 3 -20 29 -45 57 -25 28 -57 75 -72 104 l-27
51 82 87 c60 61 93 106 118 158 18 39 34 77 34 84 0 7 4 13 9 13 5 0 19 -37
30 -82 83 -333 104 -368 35 -58 -48 217 -68 289 -135 499 -33 101 -58 186 -56
188 5 4 47 -91 47 -106 0 -5 6 -16 14 -23 8 -8 31 -47 51 -86 41 -77 53 -86
37 -28 -7 22 -7 36 -1 36 5 0 2 14 -7 31 -11 23 -13 34 -5 42 8 8 11 7 11 -2
0 -7 4 -10 9 -7 5 3 14 -1 21 -9 17 -20 32 -19 63 5 30 24 30 25 92 -99 26
-52 58 -112 71 -132 13 -21 75 -138 138 -261 114 -225 246 -470 361 -673 64
-113 234 -448 355 -700 37 -77 142 -295 233 -485 383 -800 480 -1116 552
-1810 12 -119 14 -124 10 -40 -6 126 -41 418 -66 555 -25 139 -102 414 -144
519 -18 45 -36 92 -40 106 -21 69 -160 382 -265 600 -507 1049 -512 1058 -840
1650 -26 47 -72 139 -103 205 -99 211 -352 694 -392 750 -31 43 -198 185 -218
185 -2 0 -8 -10 -12 -22z m-194 -64 c38 -8 69 -19 69 -23 0 -5 -10 -23 -23
-42 -42 -63 -50 -90 -33 -108 14 -13 14 -17 -1 -33 -24 -26 -2 -48 28 -29 31
18 46 0 25 -30 -21 -30 -21 -45 1 -28 15 12 16 12 10 -3 -3 -10 -2 -18 4 -18
5 0 12 7 15 15 7 17 30 20 39 5 8 -12 -43 -80 -59 -80 -7 0 -23 21 -36 48 -13
26 -41 73 -62 105 -37 55 -40 57 -81 55 l-42 -1 38 -4 c47 -5 65 -31 101 -147
47 -152 56 -281 30 -473 -20 -152 -20 -154 -44 -115 -14 22 -17 39 -12 54 4
13 6 51 4 85 -3 56 -6 62 -29 68 -14 3 -27 4 -29 2 -3 -2 5 -26 16 -52 12 -27
18 -55 16 -62 -3 -8 -2 -12 2 -9 4 2 8 -8 8 -22 l2 -27 -17 25 c-23 35 -82
112 -113 149 -26 30 -29 31 -44 16 -12 -11 -14 -25 -10 -50 9 -44 30 -65 67
-65 18 0 28 -4 24 -10 -11 -18 -58 -11 -82 12 -19 18 -23 32 -23 80 0 48 3 58
17 58 12 0 4 13 -27 46 -47 49 -243 215 -248 210 -4 -5 39 -140 48 -150 5 -5
5 8 0 27 -7 33 -6 35 12 24 14 -9 20 -9 27 1 9 14 34 -3 113 -77 l48 -44 -35
-34 c-19 -19 -35 -43 -35 -53 0 -27 19 -25 29 3 5 13 15 28 22 34 12 9 14 1
14 -49 0 -53 3 -62 28 -84 31 -27 78 -32 96 -10 11 13 15 12 32 -2 10 -9 19
-29 19 -44 0 -16 4 -28 8 -28 5 0 15 -18 22 -41 15 -45 5 -120 -30 -211 -29
-77 -23 -70 77 91 22 34 33 11 33 -73 0 -63 1 -68 20 -63 15 4 21 0 24 -16 6
-33 3 -66 -7 -60 -4 2 -5 -8 -1 -23 4 -17 3 -25 -3 -21 -6 4 -19 -13 -29 -36
-10 -23 -29 -59 -41 -79 -13 -21 -22 -38 -21 -38 2 0 -32 -37 -74 -82 -49 -53
-81 -79 -87 -73 -23 25 -62 118 -82 195 -11 46 -25 92 -30 102 -11 21 -6 24
55 33 35 6 47 5 42 -4 -4 -6 -3 -11 1 -11 14 0 93 79 93 93 0 7 -13 -2 -28
-20 -18 -21 -40 -34 -65 -39 l-37 -6 35 52 c38 56 42 70 23 70 -7 0 5 16 27
35 33 29 24 25 -50 -20 -49 -31 -99 -58 -111 -61 -28 -7 -189 74 -226 114 -27
28 -73 146 -63 162 3 5 0 12 -6 16 -20 12 -51 95 -45 120 9 35 37 32 30 -3 -3
-18 3 -44 18 -73 20 -40 27 -45 60 -48 48 -4 55 19 27 82 -26 59 -69 89 -121
83 -36 -5 -37 -4 -43 33 -6 35 10 194 22 213 3 5 11 6 19 3 8 -3 14 -1 14 4 0
30 31 -1 80 -77 30 -47 88 -120 129 -162 63 -65 65 -67 14 -11 -95 106 -185
253 -214 348 -7 23 -16 39 -20 35 -10 -10 -36 -113 -43 -171 -16 -125 -17
-167 -7 -234 7 -40 19 -115 27 -167 8 -51 13 -95 11 -98 -10 -9 -67 159 -78
229 -18 118 -23 130 -27 60 -2 -36 -7 -60 -12 -57 -6 4 -10 15 -10 26 0 27
-18 24 -25 -4 -4 -14 4 -50 18 -88 29 -74 86 -199 91 -199 2 0 1 12 -1 28 l-5
27 21 -30 c11 -16 21 -35 21 -41 0 -5 13 -31 29 -56 16 -24 30 -64 33 -86 2
-23 3 -42 2 -42 -1 0 -34 43 -74 96 -161 215 -213 377 -190 597 6 53 15 79 44
125 27 42 29 48 9 23 -15 -18 -52 -74 -80 -124 -59 -101 -69 -96 -23 10 22 50
25 61 11 43 -32 -40 -79 -140 -95 -200 -8 -30 -15 -44 -15 -31 -1 35 35 160
71 244 59 140 173 279 271 332 31 17 41 18 70 7 41 -15 81 -16 72 -2 -4 6 -11
8 -16 4 -6 -3 -18 1 -27 9 -9 8 -24 17 -32 19 -22 7 96 64 192 92 103 31 297
36 409 10z m183 -22 c-7 -32 -18 -40 -29 -22 -7 11 23 65 31 57 2 -2 1 -18 -2
-35z m106 18 c21 -11 55 -37 75 -57 39 -41 115 -163 115 -185 0 -8 -5 -6 -11
5 -10 17 -13 16 -30 -13 -19 -31 -20 -31 -45 -15 -14 9 -32 14 -40 11 -7 -3
-13 -2 -11 2 1 4 -12 21 -30 37 -18 18 -46 65 -67 115 -40 94 -42 106 -23 113
21 9 26 8 67 -13z m-102 -115 c13 -49 16 -95 6 -95 -4 0 -21 9 -40 20 l-32 21
21 49 c12 27 24 50 27 50 3 0 11 -20 18 -45z m-938 21 c0 -3 -4 -8 -10 -11 -5
-3 -10 -1 -10 4 0 6 5 11 10 11 6 0 10 -2 10 -4z m790 -26 c-6 -12 -14 -20
-17 -17 -2 3 1 14 8 26 17 26 24 19 9 -9z m40 -6 c-18 -21 -24 -10 -8 15 7 12
14 17 16 11 2 -6 -2 -17 -8 -26z m-810 -11 c0 -5 -7 -17 -15 -27 -15 -20 -15
-20 -15 0 0 12 3 24 7 27 9 9 23 9 23 0z m-109 -130 c-12 -20 -14 -14 -5 12 4
9 9 14 11 11 3 -2 0 -13 -6 -23z m1004 -103 c-21 -24 -9 -27 16 -4 16 15 21
14 57 -6 50 -28 65 -73 23 -65 -14 3 -19 2 -11 -2 31 -13 39 -30 31 -59 l-8
-29 -13 27 c-11 23 -16 26 -33 17 -14 -8 -18 -8 -13 0 4 6 1 11 -6 11 -8 1 -6
6 6 15 26 19 3 19 -34 0 -32 -17 -50 -4 -29 21 10 12 9 13 -5 8 -19 -7 -21 6
-3 26 10 12 9 12 -6 0 -15 -11 -20 -11 -33 2 -14 13 -11 18 22 47 25 23 40 29
47 22 7 -7 5 -17 -8 -31z m-47 -107 c2 -8 -6 -13 -22 -13 -15 0 -26 6 -26 14
0 17 42 16 48 -1z m127 -73 c-3 -5 -11 -10 -16 -10 -6 0 -7 5 -4 10 3 6 11 10
16 10 6 0 7 -4 4 -10z m65 -20 c0 -10 -4 -22 -10 -25 -6 -4 -10 7 -10 25 0 18
4 29 10 25 6 -3 10 -15 10 -25z m-130 -9 c0 -5 -7 -11 -15 -15 -15 -5 -20 5
-8 17 9 10 23 9 23 -2z m129 -103 c-12 -20 -14 -21 -17 -5 -2 10 2 25 9 34 18
21 23 0 8 -29z m1 -48 c-17 -59 -82 -150 -156 -218 l-75 -70 37 -58 c20 -33
51 -77 68 -99 32 -40 25 -40 -31 2 -30 21 -101 113 -89 113 3 0 1 11 -4 25 -8
21 -4 28 35 60 24 20 51 48 61 63 13 22 9 20 -23 -10 -21 -21 -42 -38 -47 -38
-14 0 44 62 98 104 61 47 106 97 106 118 0 12 18 38 26 38 2 0 -1 -14 -6 -30z
m-890 -38 c0 -4 -5 -13 -11 -19 -7 -7 -6 -21 5 -47 15 -35 23 -40 60 -36 11 1
15 -3 12 -9 -11 -18 -51 -13 -71 9 -9 10 -20 40 -22 65 -5 37 -3 45 11 45 9 0
16 -4 16 -8z m-43 -234 c-3 -7 -5 -2 -5 12 0 14 2 19 5 13 2 -7 2 -19 0 -25z
m85 -90 c18 -15 71 -45 117 -68 67 -33 90 -39 117 -34 31 6 34 4 34 -18 0 -29
-17 -48 -44 -48 -10 0 -47 -26 -80 -59 -62 -59 -119 -94 -191 -117 -22 -7 -32
-13 -22 -13 10 -1 34 6 53 14 l36 15 -21 -35 c-11 -19 -23 -51 -27 -72 -4 -27
-22 -54 -58 -92 l-51 -55 54 47 c29 26 57 47 61 47 5 0 18 -14 30 -30 l22 -30
-48 -83 c-25 -45 -49 -85 -51 -89 -2 -5 -2 -8 1 -8 2 0 28 41 57 90 56 99 64
107 73 85 3 -8 10 -15 15 -15 15 0 21 28 12 53 -6 15 -5 30 2 43 6 10 12 25
13 33 2 7 8 19 14 25 9 8 10 5 5 -14 l-7 -25 27 25 c25 22 27 22 21 5 -5 -11
-35 -92 -68 -180 -34 -88 -78 -200 -100 -250 -22 -49 -64 -153 -93 -230 -29
-77 -71 -184 -93 -237 -68 -162 -136 -430 -167 -650 -7 -50 -23 -68 -135 -146
-25 -18 -76 -54 -114 -81 -70 -50 -86 -54 -86 -23 0 13 2 14 9 4 6 -10 31 3
102 52 99 69 178 131 128 102 -14 -9 -28 -13 -31 -10 -4 3 -20 -2 -37 -10 -16
-9 -40 -16 -52 -16 -20 0 -80 23 -131 51 -12 6 -18 6 -18 -2 0 -25 -19 5 -25
39 l-6 39 -98 -99 c-55 -54 -101 -108 -104 -119 -5 -20 -5 -20 13 -4 10 9 23
14 29 10 6 -3 9 0 5 8 -3 8 2 17 10 20 9 4 16 2 16 -2 0 -17 -103 -132 -111
-124 -15 15 -40 127 -40 180 0 29 -4 55 -8 58 -5 2 -7 18 -5 35 2 19 -1 30 -9
30 -9 0 -8 3 1 9 8 4 13 21 11 37 -8 97 1 110 126 181 108 62 205 136 257 197
120 140 342 465 380 556 19 46 22 49 35 33 13 -16 14 -14 9 20 -5 39 7 44 17
6 3 -12 -1 -27 -12 -38 -9 -9 -39 -53 -65 -97 -27 -43 -62 -96 -78 -117 -17
-21 -28 -41 -25 -44 11 -11 -34 -84 -83 -136 -27 -29 -85 -98 -129 -155 -72
-94 -78 -105 -67 -127 6 -14 17 -23 24 -20 18 7 14 -15 -11 -60 -14 -25 -31
-41 -45 -43 -12 -2 -22 -9 -22 -16 0 -7 -22 -33 -49 -58 -48 -43 -91 -111 -79
-124 3 -3 24 4 46 15 22 11 42 18 44 15 3 -3 38 60 78 138 40 79 76 147 80
151 4 5 45 2 91 -7 78 -15 85 -15 97 1 11 15 14 29 11 49 0 4 4 10 10 13 6 4
12 22 13 41 l3 34 -64 13 c-36 7 -66 15 -68 17 -5 5 74 139 237 401 75 121
143 231 149 245 11 22 10 21 -12 -5 -25 -29 -27 -29 -54 -15 -17 9 -29 26 -31
40 -6 45 -22 46 -22 2 0 -23 -3 -42 -8 -42 -4 0 -24 12 -45 26 -39 26 -45 49
-12 49 25 0 42 53 66 199 24 148 38 179 93 206 23 11 48 20 56 20 7 0 11 3 7
6 -9 9 -72 -14 -101 -37 -29 -23 -46 -74 -72 -224 -23 -137 -29 -105 -9 57 8
73 25 207 35 298 11 91 23 192 27 224 l8 59 61 -79 c34 -43 66 -89 73 -101 23
-44 32 -26 25 50 -7 67 -6 71 10 58 10 -8 24 -27 32 -42 10 -20 19 -27 32 -23
14 5 14 4 3 -4 -12 -9 -12 -13 -2 -26 17 -20 55 -21 71 -1 11 13 8 21 -15 45
-16 17 -36 30 -45 30 -23 0 -100 122 -100 157 1 26 2 25 15 -12 8 -22 29 -52
47 -67z m-75 30 c-3 -7 -5 -2 -5 12 0 14 2 19 5 13 2 -7 2 -19 0 -25z m735
-222 c-3 -6 -7 -5 -10 2 -2 7 -7 10 -12 7 -4 -3 -6 4 -3 15 5 19 6 19 18 3 7
-10 11 -22 7 -27z m28 -6 c0 -5 -5 -10 -11 -10 -5 0 -7 5 -4 10 3 6 8 10 11
10 2 0 4 -4 4 -10z m-499 -18 c-18 -33 -90 -107 -91 -92 0 12 87 110 97 110 2
0 -1 -8 -6 -18z m617 -20 c77 -83 98 -189 62 -323 -29 -105 -49 -206 -50 -240
0 -18 6 -28 20 -32 23 -6 27 -37 5 -37 -8 0 -15 5 -15 10 0 6 -13 4 -30 -5
-16 -8 -36 -15 -45 -15 -8 0 -14 -6 -13 -12 4 -19 -91 -22 -160 -6 -31 7 -63
12 -69 11 -7 0 -11 3 -8 7 3 4 -4 18 -14 31 -22 28 -51 126 -57 188 -2 24 -6
46 -9 49 -2 3 0 11 7 19 6 7 8 16 5 19 -3 4 8 33 24 67 17 33 32 69 35 80 2
11 12 30 23 41 10 12 29 40 40 62 25 48 41 64 96 93 59 31 120 28 153 -7z
m-571 -104 c1 -19 -5 -31 -17 -38 -26 -14 -33 -13 -26 6 4 9 2 13 -5 8 -17
-10 -29 17 -18 39 7 12 19 17 37 15 21 -2 27 -9 29 -30z m32 -167 c8 3 29 -11
47 -29 28 -28 37 -32 49 -22 10 9 15 9 15 1 0 -6 -3 -11 -7 -12 -5 0 -21 -3
-37 -5 -23 -4 -35 2 -67 36 -21 22 -39 46 -39 52 0 7 6 4 13 -6 8 -11 19 -17
26 -15z m59 -95 c7 -4 25 2 42 14 l30 21 0 -25 c0 -14 5 -28 11 -32 6 -3 8
-17 5 -29 -3 -13 -2 -26 3 -29 4 -3 7 -24 6 -47 -2 -26 1 -36 6 -28 7 11 9 11
9 -1 0 -8 11 -36 24 -63 13 -26 18 -42 11 -37 -7 6 -18 24 -25 41 -18 42 -24
29 -10 -21 10 -36 9 -45 -6 -61 -10 -11 -24 -17 -32 -14 -26 10 -104 -45 -116
-82 -7 -22 -56 -49 -65 -36 -8 11 -81 12 -81 2 0 -25 -52 42 -75 95 l-26 62
60 169 c41 116 67 175 83 186 22 17 24 16 78 -30 30 -26 61 -51 68 -55z m71
-388 c24 -30 24 -31 7 -61 -12 -22 -13 -27 -2 -18 8 6 25 9 39 6 19 -5 30 0
51 26 15 17 30 29 33 25 15 -15 -170 -261 -276 -367 -47 -48 -96 -99 -107
-115 -12 -16 -46 -46 -76 -67 -63 -43 -94 -42 -84 3 3 15 -7 72 -21 126 -14
55 -29 126 -33 159 -6 53 -4 67 22 124 16 36 30 67 33 69 2 2 15 -9 29 -24 20
-23 25 -40 26 -79 0 -61 12 -77 47 -64 18 7 22 6 17 -4 -4 -6 4 0 17 14 14 14
39 34 57 44 29 17 31 22 26 56 -6 35 -3 40 51 91 55 51 104 88 115 87 3 0 16
-14 29 -31z m135 -265 c7 -189 7 -727 0 -720 -10 10 -89 137 -130 208 -104
183 -159 314 -144 340 5 7 6 17 4 21 -3 4 26 43 63 87 38 43 95 117 128 164
33 48 63 86 66 87 3 0 9 -84 13 -187z m-1102 -9 c-38 -92 -81 -173 -82 -154 0
8 -11 28 -25 43 -16 17 -25 36 -22 51 4 31 26 58 41 49 6 -4 5 1 -2 10 -12 14
-11 15 11 12 14 -3 30 1 37 9 6 8 17 13 24 10 7 -3 18 7 26 21 25 47 20 19 -8
-51z m851 -300 c28 -65 169 -318 221 -395 30 -45 31 -48 26 -135 -7 -125 -22
-124 -94 3 -67 119 -148 208 -175 191 -13 -8 -25 -7 -49 6 -17 9 -42 16 -55
16 -18 0 -35 16 -70 68 -44 64 -46 70 -36 105 5 20 14 39 20 43 6 3 19 26 29
50 16 37 67 84 91 84 3 0 9 -34 12 -75 6 -66 12 -83 46 -134 46 -67 160 -171
157 -144 0 10 5 17 12 15 16 -3 18 -6 -64 118 -82 126 -104 172 -104 216 0 46
2 44 33 -32z m-683 -4 c0 -5 -5 -10 -11 -10 -5 0 -7 5 -4 10 3 6 8 10 11 10 2
0 4 -4 4 -10z m-20 -50 c0 -5 -2 -10 -4 -10 -3 0 -8 5 -11 10 -3 6 -1 10 4 10
6 0 11 -4 11 -10z m-10 -30 c0 -5 -4 -10 -10 -10 -5 0 -10 5 -10 10 0 6 5 10
10 10 6 0 10 -4 10 -10z m283 -27 c22 -7 22 -31 -3 -95 -11 -29 -20 -54 -20
-54 0 -1 17 -4 38 -6 20 -3 45 -8 54 -12 13 -6 17 -2 20 20 2 18 13 34 30 44
25 13 31 13 62 -4 30 -16 38 -29 55 -85 18 -60 50 -206 66 -306 4 -22 20 -73
36 -114 16 -41 28 -75 27 -75 -2 -1 -16 -10 -33 -20 l-30 -17 30 27 30 26 -35
-19 c-19 -11 -34 -26 -32 -32 1 -7 -2 -10 -8 -6 -5 3 -56 -30 -111 -74 -56
-44 -110 -79 -120 -78 -10 1 -16 4 -13 8 7 11 -56 80 -67 73 -5 -3 -9 0 -9 6
0 7 -8 19 -18 28 -10 10 -11 13 -2 7 13 -9 13 -8 1 8 -7 9 -20 17 -27 17 -14
0 -15 1 -19 35 -1 12 -14 40 -29 64 -15 24 -25 45 -22 48 3 3 -1 12 -9 20 -17
17 -20 33 -5 33 5 0 21 -18 35 -40 26 -41 39 -52 29 -25 -4 8 -1 15 5 15 21 0
11 29 -39 113 -51 84 -51 84 -39 132 l12 47 26 -33 c14 -19 57 -69 95 -112 61
-69 71 -77 77 -59 4 11 12 23 18 26 5 4 16 20 25 36 14 30 14 31 -21 58 -78
59 -113 95 -154 158 l-43 66 13 61 c7 34 20 74 28 88 14 24 19 26 47 17 17 -5
39 -12 49 -15z m1027 -280 c0 -5 7 -64 16 -133 18 -143 26 -387 13 -412 -5 -9
-17 -15 -26 -14 -14 2 -18 13 -19 43 0 22 -3 44 -7 49 -3 6 -7 45 -8 89 -3 91
-16 157 -36 168 -7 4 -13 20 -12 35 0 24 1 25 10 7 6 -14 8 -4 6 37 -3 45 0
59 14 69 27 19 7 49 -34 50 -30 1 -31 1 -7 9 33 10 90 12 90 3z m-160 -98 c0
-5 -5 -3 -10 5 -5 8 -10 20 -10 25 0 6 5 3 10 -5 5 -8 10 -19 10 -25z m60 24
c0 -5 4 -8 9 -4 6 3 7 -6 4 -22 -7 -34 -7 -30 1 -133 7 -88 10 -120 21 -252 5
-55 4 -78 -4 -78 -6 0 -12 12 -13 28 -2 37 -7 108 -12 157 -3 22 -7 64 -9 92
-3 29 -8 57 -12 63 -4 6 -8 44 -10 85 -3 60 -1 75 11 75 7 0 14 -5 14 -11z
m-344 -113 c12 -3 26 -18 32 -31 12 -25 10 -26 -94 -76 -58 -28 -107 -49 -110
-47 -5 5 -34 119 -34 134 0 6 17 23 39 38 21 15 44 39 50 53 l12 26 42 -45
c23 -25 51 -48 63 -52z m269 74 c3 -5 1 -10 -4 -10 -6 0 -11 5 -11 10 0 6 2
10 4 10 3 0 8 -4 11 -10z m-1466 -26 c-6 -8 -17 -14 -23 -13 -7 0 -6 2 2 6 6
2 12 11 12 19 0 9 5 12 10 9 8 -5 7 -11 -1 -21z m-59 -47 c0 -2 -10 -12 -22
-23 l-23 -19 19 23 c18 21 26 27 26 19z m510 -48 c0 -5 -4 -9 -10 -9 -5 0 -10
7 -10 16 0 8 5 12 10 9 6 -3 10 -10 10 -16z m-590 -44 c-7 -9 -15 -13 -18 -10
-3 2 1 11 8 20 7 9 15 13 18 10 3 -2 -1 -11 -8 -20z m1332 -15 c-67 -30 -90
-32 -32 -2 30 15 59 26 63 24 5 -2 -9 -12 -31 -22z m-767 10 c3 -5 1 -10 -4
-10 -6 0 -11 5 -11 10 0 6 2 10 4 10 3 0 8 -4 11 -10z m865 -10 c0 -11 -4 -20
-10 -20 -5 0 -10 9 -10 20 0 11 5 20 10 20 6 0 10 -9 10 -20z m-850 -20 c0 -5
-2 -10 -4 -10 -3 0 -8 5 -11 10 -3 6 -1 10 4 10 6 0 11 -4 11 -10z m-637 -93
c21 -33 13 -49 -33 -66 -26 -9 -32 -7 -50 18 -38 54 -42 79 -19 111 l21 28 32
-31 c17 -18 39 -45 49 -60z m1297 73 c0 -5 -6 -10 -14 -10 -8 0 -16 -3 -18 -7
-4 -9 -78 -45 -78 -38 0 4 100 65 108 65 1 0 2 -4 2 -10z m-1015 -80 c3 -5 1
-10 -4 -10 -6 0 -11 5 -11 10 0 6 2 10 4 10 3 0 8 -4 11 -10z m-105 -40 c0 -5
-4 -10 -10 -10 -5 0 -10 5 -10 10 0 6 5 10 10 10 6 0 10 -4 10 -10z m1284 -72
c-6 -60 -27 -98 -55 -98 -9 0 -49 72 -49 89 0 7 91 66 107 70 2 1 0 -27 -3
-61z m-1274 -108 c0 -6 -44 -76 -56 -89 -12 -14 -174 133 -174 158 0 5 9 20
21 35 12 15 16 26 9 26 -10 0 -10 3 0 15 10 12 26 3 106 -62 52 -42 94 -80 94
-83z m1755 -41 c26 -164 40 -242 51 -290 5 -22 1 -27 -33 -42 -21 -9 -54 -19
-73 -23 -32 -6 -33 -5 -20 10 12 15 11 22 -5 52 -14 27 -16 36 -5 49 7 8 10
22 6 31 -3 8 -1 25 5 36 10 19 11 19 29 1 12 -12 14 -22 8 -30 -7 -9 -6 -18 2
-28 9 -10 9 -19 2 -27 -13 -16 -4 -68 12 -68 7 0 20 6 29 13 16 11 14 28 -18
240 -19 125 -35 240 -34 255 1 53 16 -9 44 -179z m-1125 126 c7 -9 8 -15 2
-15 -5 0 -12 7 -16 15 -3 8 -4 15 -2 15 2 0 9 -7 16 -15z m539 -17 l11 -33
-20 24 c-11 12 -17 27 -14 32 8 14 11 11 23 -23z m-949 12 c13 -8 12 -10 -2
-10 -10 0 -18 -4 -18 -10 0 -5 -7 -10 -15 -10 -8 0 -15 9 -15 20 0 22 24 27
50 10z m250 -10 c0 -5 -4 -10 -10 -10 -5 0 -10 -7 -10 -15 0 -8 -9 -15 -20
-15 -20 0 -28 28 -13 43 10 11 53 8 53 -3z m667 -60 c12 -27 18 -52 13 -55 -4
-3 -6 -13 -4 -23 25 -111 56 -235 68 -269 19 -54 9 -55 -64 -9 -33 21 -57 30
-61 24 -3 -5 -10 -10 -15 -11 -5 -1 -8 -5 -7 -9 6 -16 -36 8 -94 56 -58 48
-62 54 -62 94 -1 24 3 42 8 40 5 -1 28 -26 53 -55 24 -28 57 -62 73 -74 17
-12 6 3 -24 34 -30 31 -53 58 -50 60 2 2 20 10 39 17 32 13 33 15 12 20 -20 4
-15 10 42 43 85 50 86 60 2 13 -35 -20 -71 -36 -79 -36 -13 0 -57 105 -46 113
6 4 163 75 169 76 3 0 15 -22 27 -49z m-1098 14 c3 -16 1 -17 -13 -5 -19 16
-21 34 -3 29 6 -3 14 -13 16 -24z m1641 -1 c0 -22 2 -25 10 -13 5 8 10 12 10
8 0 -3 3 -14 7 -24 4 -12 3 -15 -5 -10 -8 5 -12 0 -12 -14 0 -15 -5 -20 -17
-18 -28 5 -31 98 -3 98 5 0 10 -12 10 -27z m-165 7 c3 -6 -1 -7 -9 -4 -18 7
-21 14 -7 14 6 0 13 -4 16 -10z m88 -42 c4 -29 2 -38 -9 -38 -10 0 -14 13 -14
47 0 54 14 48 23 -9z m-759 -34 c27 -36 46 -67 43 -70 -5 -5 -66 75 -86 114
-20 38 -7 25 43 -44z m421 -11 c-4 -43 -11 -105 -17 -138 -5 -33 -13 -78 -17
-100 l-6 -40 -17 60 c-9 33 -24 94 -33 136 l-16 77 23 23 c28 28 69 58 81 58
4 1 5 -34 2 -76z m-338 -16 l3 -42 -15 34 c-18 41 -19 51 -2 51 7 0 13 -16 14
-43z m-1344 -135 c45 -27 96 -57 113 -65 l30 -16 17 106 c19 115 24 130 39
115 7 -7 15 -6 25 4 16 15 13 16 108 -33 23 -12 40 -28 40 -38 0 -10 7 -22 15
-26 45 -24 190 -73 197 -66 2 2 -23 14 -54 25 -32 12 -67 27 -77 35 -17 12
-17 15 -2 51 20 47 20 52 1 36 -16 -13 -18 -10 -9 13 5 13 18 10 76 -18 39
-19 95 -39 125 -45 43 -9 53 -15 49 -28 -3 -9 -8 -29 -12 -45 -3 -15 -13 -31
-22 -36 -13 -7 -12 -10 5 -15 15 -5 19 -13 15 -31 -3 -18 0 -25 12 -25 9 0 16
-8 16 -17 -1 -42 -39 -196 -50 -203 -6 -4 -12 -11 -13 -16 -1 -5 -4 -8 -7 -7
-3 0 -50 16 -105 34 -55 18 -165 46 -245 63 l-145 31 3 63 c1 34 -1 62 -6 62
-12 0 -20 -89 -20 -228 0 -62 -2 -116 -6 -119 -3 -4 -6 2 -6 11 0 10 -12 30
-27 46 -39 39 -54 67 -58 108 -2 19 -9 38 -16 42 -7 5 -10 19 -7 34 7 33 -5
41 -34 25 -21 -11 -22 -11 -9 4 17 21 47 22 55 2 7 -20 60 -19 77 1 22 27 38
83 25 87 -6 2 -15 -14 -21 -36 -20 -81 -76 -72 -68 10 4 29 10 43 21 45 10 2
-11 19 -53 42 -73 41 -185 144 -185 169 0 9 25 -11 56 -43 30 -32 92 -80 137
-108z m1942 138 c3 -5 -1 -10 -10 -10 -9 0 -13 5 -10 10 3 6 8 10 10 10 2 0 7
-4 10 -10z m172 -58 c2 -23 -2 -42 -7 -42 -6 0 -10 6 -10 14 0 7 -3 28 -7 46
-5 25 -3 32 8 28 8 -3 15 -21 16 -46z m-903 -18 c39 -44 46 -58 35 -65 -25
-16 -138 -51 -147 -45 -8 5 -36 114 -34 133 1 6 58 26 92 32 3 0 27 -24 54
-55z m816 36 c0 -11 -4 -20 -10 -20 -5 0 -10 9 -10 20 0 11 5 20 10 20 6 0 10
-9 10 -20z m-976 -42 c3 -13 5 -32 5 -43 0 -16 -4 -13 -14 10 -8 17 -14 36
-15 43 0 21 17 13 24 -10z m-1154 -24 c0 -11 -72 -122 -88 -137 -35 -32 -33
-2 4 87 l36 85 24 -15 c13 -9 24 -18 24 -20z m2130 14 c0 -16 -3 -19 -11 -11
-6 6 -8 16 -5 22 11 17 16 13 16 -11z m-1022 -55 c9 -51 8 -69 -1 -75 -21 -13
-135 -20 -202 -13 l-65 7 4 56 c3 31 3 46 0 32 -8 -36 -24 -49 -24 -19 0 46
12 52 120 59 55 4 104 10 107 14 4 3 16 6 28 6 19 0 23 -8 33 -67z m946 60
c-5 -5 -12 -12 -16 -18 -4 -6 -8 -2 -8 8 0 9 7 17 17 17 9 0 12 -3 7 -7z m312
-142 c4 -40 3 -53 -5 -46 -6 6 -13 44 -16 85 -6 86 9 58 21 -39z m-2359 67
c-3 -8 -6 -5 -6 6 -1 11 2 17 5 13 3 -3 4 -12 1 -19z m1383 12 c-12 -8 -8 -16
25 -45 61 -53 281 -155 335 -155 15 0 36 -28 28 -35 -2 -2 -57 -8 -123 -14
-66 -6 -171 -21 -233 -33 -83 -17 -117 -19 -130 -12 -18 11 -64 117 -77 175
-7 30 -6 32 9 20 10 -8 26 -11 43 -6 19 4 23 9 14 14 -9 6 -1 15 28 32 23 12
40 28 38 33 -2 6 5 16 17 23 25 15 48 17 26 3z m767 -26 c-2 -13 0 -24 4 -24
16 0 10 -38 -7 -44 -31 -12 -44 -6 -44 19 0 14 4 25 10 25 5 0 7 7 4 15 -9 23
3 45 22 38 10 -4 14 -14 11 -29z m-2081 16 c18 0 18 -25 -2 -83 -15 -45 -44
-74 -58 -60 -9 9 -7 46 5 103 8 39 15 50 26 46 8 -3 21 -6 29 -6z m1990 -47
c-7 -7 -26 7 -26 19 0 6 6 6 15 -2 9 -7 13 -15 11 -17z m-1961 -53 c-3 -5 -11
-10 -16 -10 -6 0 -7 5 -4 10 3 6 11 10 16 10 6 0 7 -4 4 -10z m1554 -23 c11
-14 6 -27 -10 -27 -5 0 -13 9 -19 20 -8 16 -8 20 3 20 8 0 20 -6 26 -13z m363
-27 c6 0 9 -3 5 -6 -10 -10 -47 7 -47 22 0 13 2 13 16 0 8 -9 20 -16 26 -16z
m294 -19 c-6 -9 -46 -22 -46 -15 0 3 10 9 23 14 29 11 29 11 23 1z m-1599
-373 c-3 -7 -5 -2 -5 12 0 14 2 19 5 13 2 -7 2 -19 0 -25z m26 -952 c8 -47
-17 -158 -46 -211 -34 -60 -181 -247 -185 -235 -2 6 3 34 12 63 8 28 24 85 35
126 11 41 25 77 30 81 15 9 41 76 41 105 0 31 20 34 21 3 1 -16 5 -10 14 18
19 62 34 84 54 84 13 0 20 -10 24 -34z m-571 -173 c-11 -37 -27 -127 -37 -198
-10 -72 -20 -132 -22 -135 -2 -2 -8 2 -12 9 -12 20 -50 7 -89 -29 -39 -35 -41
-36 -57 -13 -8 11 -10 25 -4 39 7 19 5 22 -11 19 -11 -2 -22 0 -24 4 -3 4 17
7 43 6 50 -1 61 12 37 45 -9 13 -9 13 6 2 18 -15 38 -9 38 11 0 7 -4 6 -10 -3
-6 -9 -10 -10 -10 -3 0 6 5 15 10 18 6 3 10 22 10 40 0 28 4 36 24 41 23 6 56
55 56 86 0 7 7 22 15 32 8 11 15 30 15 43 0 13 4 23 9 23 5 0 13 9 16 21 4 11
9 18 11 16 3 -2 -4 -36 -14 -74z m318 47 c0 -23 -26 -38 -41 -23 -14 14 0 43
22 43 12 0 19 -7 19 -20z m1368 -29 c3 -16 -1 -22 -10 -19 -7 3 -15 15 -16 27
-3 16 1 22 10 19 7 -3 15 -15 16 -27z m-1947 -338 c13 -16 12 -17 -3 -4 -10 7
-18 15 -18 17 0 8 8 3 21 -13z m-382 -434 c17 -6 31 -15 31 -20 0 -4 -7 -6
-15 -3 -8 4 -26 -1 -40 -10 -24 -16 -25 -18 -10 -46 9 -17 13 -30 10 -30 -6 0
-40 67 -49 98 -6 19 -4 22 17 22 13 0 38 -5 56 -11z m-16 -164 c17 -28 22 -44
13 -35 -17 13 -76 122 -76 137 1 4 8 -5 17 -22 8 -16 29 -52 46 -80z m2907
-580 c0 -26 -14 -33 -25 -15 -9 14 1 40 15 40 5 0 10 -11 10 -25z m-2096 -38
c10 -37 7 -47 -14 -47 -21 0 -37 38 -26 65 7 20 33 9 40 -18z m2276 -19 c34
-4 37 -31 10 -85 -18 -36 -24 -42 -36 -32 -8 6 -14 22 -14 34 0 12 -6 28 -14
35 -8 6 -13 18 -10 26 14 45 14 46 27 36 6 -6 23 -12 37 -14z m-171 -86 c6 -2
11 -9 11 -16 0 -6 18 -32 40 -56 22 -24 40 -52 40 -61 0 -10 7 -25 16 -34 23
-22 10 -78 -23 -105 -36 -28 -48 -25 -24 6 30 38 26 59 -14 78 -19 10 -42 28
-51 42 -21 32 -31 30 -39 -6 -9 -40 -30 -53 -23 -14 3 16 14 76 24 133 16 89
20 99 26 70 3 -18 11 -35 17 -37z m-2035 -64 c6 -4 18 -5 28 -2 24 7 93 -137
83 -174 -8 -29 -10 -26 -20 32 -6 37 -8 38 -37 32 -44 -9 -65 14 -87 93 -33
114 -34 133 -5 76 15 -27 32 -53 38 -57z m1857 15 c-12 -20 -14 -14 -5 12 4 9
9 14 11 11 3 -2 0 -13 -6 -23z m-18 -80 c-4 -50 -1 -63 19 -93 16 -24 32 -35
50 -36 45 -2 98 -79 62 -91 -6 -2 -43 28 -82 66 -68 66 -72 72 -72 115 0 37
16 96 26 96 1 0 0 -26 -3 -57z m-1996 -97 c-4 -13 -37 82 -36 103 0 9 9 -9 20
-39 11 -30 18 -59 16 -64z m156 -81 c20 -4 27 -11 25 -23 -5 -27 -42 -25 -77
3 -38 33 -40 46 -3 34 15 -4 40 -11 55 -14z m141 -16 c-4 -7 -7 -26 -8 -43 -1
-28 -6 -33 -58 -54 -61 -24 -166 -38 -184 -25 -7 4 -14 21 -15 37 l-4 28 70 2
c77 3 137 19 175 47 29 22 34 23 24 8z m1741 -20 c41 -15 45 -18 22 -19 -15 0
-41 7 -57 15 -48 25 -39 -9 10 -36 45 -26 47 -39 3 -15 -35 17 -48 32 -58 65
-6 21 -5 23 11 16 11 -4 42 -16 69 -26z m335 -4 c0 -24 -35 -65 -62 -74 -49
-15 -133 -24 -162 -17 -22 5 -26 12 -26 41 l0 35 83 1 c45 1 96 5 112 9 39 10
55 11 55 5z"/>
<path d="M2425 7636 l-40 -13 35 -15 c19 -9 48 -29 64 -44 23 -22 28 -24 22
-9 -5 11 -10 33 -12 48 -7 51 -8 52 -69 33z"/>
<path d="M2019 7433 c-13 -16 -12 -17 4 -4 9 7 17 15 17 17 0 8 -8 3 -21 -13z"/>
<path d="M2414 7234 c-18 -14 -18 -15 4 -4 12 6 22 13 22 15 0 8 -5 6 -26 -11z"/>
<path d="M2360 7185 c0 -5 5 -17 10 -25 5 -8 10 -10 10 -5 0 6 -5 17 -10 25
-5 8 -10 11 -10 5z"/>
<path d="M1990 7074 c0 -8 5 -12 10 -9 6 4 8 11 5 16 -9 14 -15 11 -15 -7z"/>
<path d="M2670 7085 c0 -2 9 -19 20 -37 23 -39 27 -30 5 12 -14 27 -25 38 -25
25z"/>
<path d="M2701 6794 c0 -11 3 -14 6 -6 3 7 2 16 -1 19 -3 4 -6 -2 -5 -13z"/>
<path d="M2982 7378 c-10 -30 -10 -31 3 -14 13 17 21 46 12 46 -1 0 -8 -15
-15 -32z"/>
<path d="M2035 6029 c-9 -17 -15 -33 -13 -35 3 -2 12 12 21 31 21 43 13 47 -8
4z"/>
<path d="M2011 5964 c0 -11 3 -14 6 -6 3 7 2 16 -1 19 -3 4 -6 -2 -5 -13z"/>
<path d="M2785 6151 c3 -29 7 -56 9 -60 3 -4 6 -58 7 -119 1 -62 6 -112 11
-112 5 0 6 33 4 73 -3 39 -8 111 -12 158 -3 47 -9 92 -14 99 -6 9 -7 -6 -5
-39z"/>
<path d="M2875 6141 c-7 -23 3 -71 15 -71 5 0 5 13 0 30 -5 18 -5 32 1 35 12
8 12 25 0 25 -5 0 -12 -9 -16 -19z"/>
<path d="M2915 6115 c0 -25 3 -45 8 -45 4 0 7 20 7 45 0 25 -3 45 -8 45 -4 0
-7 -20 -7 -45z"/>
<path d="M2959 6143 c-12 -15 -12 -16 3 -10 14 5 18 -1 21 -31 3 -33 4 -32 5
11 2 49 -6 58 -29 30z"/>
<path d="M2768 5963 c7 -3 16 -2 19 1 4 3 -2 6 -13 5 -11 0 -14 -3 -6 -6z"/>
<path d="M2360 5996 c0 -8 -3 -21 -6 -30 -3 -9 -1 -16 4 -16 6 0 12 10 14 22
2 14 13 25 28 29 23 6 22 7 -7 8 -22 1 -33 -4 -33 -13z"/>
<path d="M2400 5940 c13 -9 13 -10 0 -10 -36 -1 28 -24 77 -27 49 -4 72 8 41
20 -7 3 -3 6 10 6 12 1 22 4 22 9 0 4 -21 5 -47 3 -33 -2 -42 -6 -29 -11 14
-5 16 -9 7 -14 -6 -4 -18 -3 -25 3 -9 7 -16 7 -23 0 -8 -8 -13 -8 -17 0 -4 6
-2 11 3 11 21 0 11 16 -11 17 -18 2 -20 0 -8 -7z"/>
<path d="M1720 6983 c-21 -70 -165 -513 -297 -918 -42 -126 -111 -320 -153
-430 -78 -201 -97 -254 -87 -245 13 13 183 470 250 675 187 565 319 977 314
982 -3 3 -15 -26 -27 -64z"/>
<path d="M1911 6864 c0 -11 3 -14 6 -6 3 7 2 16 -1 19 -3 4 -6 -2 -5 -13z"/>
<path d="M3252 6695 c0 -11 4 -31 8 -45 6 -20 8 -21 8 -5 0 11 -4 31 -8 45 -6
20 -8 21 -8 5z"/>
<path d="M3271 6615 c-2 -19 87 -419 133 -601 25 -98 67 -280 95 -404 27 -124
74 -328 105 -455 30 -126 73 -320 96 -430 23 -110 59 -283 80 -385 44 -215 64
-349 85 -583 26 -285 21 -356 -45 -732 -59 -330 -63 -348 -165 -655 -116 -353
-129 -412 -123 -579 5 -144 23 -200 99 -312 45 -67 153 -179 173 -179 6 0 -7
17 -29 38 -22 20 -40 41 -40 47 -1 5 -6 9 -13 7 -18 -3 -99 112 -133 191 -17
37 -32 91 -35 120 l-4 52 15 -64 c8 -35 17 -66 20 -69 3 -3 5 22 5 55 0 59 29
179 37 155 3 -6 8 -10 12 -8 6 4 10 -35 15 -156 2 -45 13 -32 20 22 9 66 22
71 30 9 10 -71 34 -127 119 -275 89 -155 108 -205 115 -306 4 -65 1 -83 -17
-118 -11 -22 -17 -40 -13 -40 4 0 19 24 35 53 30 56 144 206 210 275 23 24
101 93 173 152 132 110 245 222 316 316 44 59 136 226 179 327 49 117 33 90
-55 -88 -46 -93 -103 -197 -128 -230 -64 -86 -217 -239 -328 -328 -117 -93
-208 -185 -292 -298 l-65 -86 -6 81 c-5 89 -25 148 -82 244 -38 65 -70 155
-61 175 2 7 5 4 5 -5 1 -10 6 -18 12 -18 5 0 7 6 3 13 -6 9 -5 9 7 0 8 -6 32
-47 53 -91 23 -48 44 -78 51 -76 7 3 18 -9 25 -25 17 -41 27 -31 35 32 8 63
-12 133 -37 131 -11 -1 -19 9 -23 27 -4 15 -15 39 -26 53 l-20 25 31 -13 c46
-19 74 -9 120 40 l40 44 -6 -43 c-3 -23 -17 -89 -30 -145 -13 -57 -24 -105
-24 -107 0 -2 21 19 48 46 91 95 120 57 58 -76 -19 -41 -33 -75 -31 -75 2 0
67 63 145 141 95 95 140 146 136 156 -4 9 21 53 62 111 77 110 90 132 157 256
38 70 43 86 26 74 -16 -11 -32 -13 -56 -8 -18 4 -37 4 -42 0 -4 -5 -29 -5 -55
-1 -26 4 -45 4 -42 -1 3 -4 1 -8 -5 -8 -5 0 -12 6 -14 13 -4 9 -6 9 -6 0 -1
-7 -6 -13 -12 -13 -5 0 -8 4 -5 9 3 5 -2 8 -12 7 -9 0 -16 5 -15 12 2 6 -2 12
-8 12 -6 0 -9 -9 -6 -20 7 -27 -1 -25 -13 3 -6 15 -9 17 -9 6 -1 -10 -12 -19
-27 -22 -17 -3 -24 -1 -21 8 3 6 -1 12 -9 12 -7 0 -11 -4 -8 -9 3 -4 1 -8 -5
-8 -5 0 -13 5 -16 10 -4 6 -14 1 -25 -12 l-18 -23 -22 38 c-12 20 -26 37 -30
37 -5 0 -17 -12 -28 -27 -28 -38 -38 -23 -13 18 26 43 26 46 -1 44 -13 -1 -41
13 -65 33 -24 19 -43 29 -43 23 0 -7 -5 -9 -10 -6 -6 4 -8 10 -5 15 7 12 -73
6 -84 -6 -27 -29 -86 -165 -97 -227 -19 -101 -18 -128 10 -160 22 -26 43 -93
33 -104 -3 -2 -14 0 -24 5 -12 7 -25 7 -37 0 -27 -15 -35 0 -47 88 -9 60 -9
89 0 122 7 23 15 41 19 38 4 -2 8 3 9 12 5 51 16 82 57 167 38 79 48 93 66 90
12 -2 18 0 14 6 -3 6 -9 8 -12 5 -3 -3 -12 0 -20 7 -10 8 -13 8 -9 1 8 -14
-15 -25 -32 -15 -12 8 -4 33 49 156 18 42 23 47 31 32 6 -9 18 -17 28 -17 22
0 44 -23 33 -36 -4 -4 1 -3 10 4 14 11 18 10 27 -6 6 -11 7 -23 3 -28 -4 -5 1
-2 11 5 9 7 17 10 17 6 0 -4 6 -3 13 2 6 5 22 8 35 7 16 -1 28 9 44 35 12 20
25 38 28 41 4 3 10 17 13 31 4 15 19 35 34 45 27 17 28 17 13 -1 -13 -16 -13
-18 0 -13 9 3 15 17 15 34 1 18 6 29 15 29 23 1 41 15 34 27 -4 6 -2 8 4 4 10
-6 9 -32 -4 -81 -14 -56 16 20 42 104 20 69 25 96 16 99 -7 2 -12 10 -12 17 0
8 -11 26 -24 40 -21 23 -23 30 -14 59 6 19 7 43 3 53 -5 10 -8 21 -7 25 1 4
-12 18 -29 32 -16 14 -28 29 -27 33 3 9 -64 43 -74 37 -4 -2 -10 1 -13 6 -4 6
-18 15 -31 20 -13 5 -24 17 -24 27 -1 30 -28 -42 -84 -222 -52 -166 -133 -381
-196 -519 l-31 -68 -27 25 c-20 19 -31 23 -44 16 -13 -7 -15 -5 -12 14 10 49
-38 -71 -67 -170 -17 -58 -38 -113 -46 -122 -33 -32 -3 92 87 359 107 319 109
327 159 610 78 438 83 517 55 828 -20 225 -45 390 -94 622 -22 102 -56 264
-76 360 -19 96 -58 267 -85 380 -27 113 -70 297 -94 410 -25 113 -74 324 -109
470 -36 146 -79 332 -96 413 -29 137 -48 207 -49 182z"/>
<path d="M1931 6500 c-1 -8 -4 -26 -7 -40 -5 -19 -4 -22 5 -14 7 6 11 24 8 40
-2 16 -5 22 -6 14z"/>
<path d="M3490 5949 c0 -8 9 -47 20 -87 23 -84 25 -109 4 -67 -13 27 -14 27
-10 5 3 -14 10 -54 16 -90 6 -36 24 -121 40 -190 16 -69 43 -188 60 -265 45
-201 85 -361 108 -430 42 -128 82 -263 96 -327 45 -193 44 -189 75 -398 6 -36
13 -119 17 -185 4 -66 10 -129 15 -140 7 -19 8 -19 8 1 1 20 25 40 44 36 4 -1
7 4 8 10 1 7 5 2 10 -12 16 -45 0 280 -21 415 -11 72 -20 133 -20 137 0 3 8 5
17 4 20 -3 31 -40 64 -217 12 -66 24 -117 26 -115 7 6 -25 249 -42 321 -8 33
-26 121 -40 195 -26 131 -76 355 -115 510 -23 92 -121 423 -127 430 -2 2 -8
-1 -12 -8 -9 -14 -38 53 -76 176 -15 46 -28 82 -30 80 -2 -1 14 -73 36 -158
40 -153 44 -190 23 -197 -13 -4 -45 89 -124 362 -60 204 -70 234 -70 204z
m367 -976 c-3 -10 -5 -2 -5 17 0 19 2 27 5 18 2 -10 2 -26 0 -35z m123 -577
c0 -11 -19 -15 -25 -6 -3 5 1 10 9 10 9 0 16 -2 16 -4z"/>
<path d="M1083 5152 c-50 -125 -135 -333 -188 -462 -53 -129 -130 -320 -171
-425 -41 -104 -91 -221 -110 -258 -19 -37 -31 -73 -28 -80 4 -7 3 -9 -1 -4
-10 9 -40 -38 -151 -236 -102 -184 -204 -413 -250 -566 -39 -128 -114 -457
-113 -493 0 -13 7 9 15 47 44 209 69 312 100 417 37 128 141 378 206 498 87
159 181 321 185 317 2 -3 -14 -51 -36 -108 -22 -56 -39 -105 -37 -107 5 -4 56
118 106 253 21 55 56 141 78 192 22 50 55 131 72 179 17 49 55 147 85 219 30
71 72 175 93 230 22 55 85 214 141 354 56 139 101 255 98 257 -2 2 -44 -98
-94 -224z"/>
<path d="M3375 3710 c-3 -5 1 -23 10 -41 29 -56 -5 -82 -44 -33 -11 15 -18 30
-15 35 3 5 -6 4 -20 -3 -30 -13 -30 -12 -10 -63 13 -34 14 -35 10 -9 -3 16 -6
36 -8 43 -6 27 17 20 34 -9 19 -33 48 -39 69 -14 10 12 10 22 0 50 -7 18 -9
38 -6 44 3 5 2 10 -4 10 -5 0 -13 -4 -16 -10z"/>
<path d="M3234 3635 c-18 -13 -18 -14 4 -8 12 3 25 9 28 14 8 14 -10 11 -32
-6z"/>
<path d="M3162 3623 c-21 -4 -22 -8 -15 -51 14 -89 11 -107 -18 -110 -24 -3
-28 2 -38 42 -6 25 -11 59 -11 75 0 17 -5 31 -10 31 -12 0 -6 -44 14 -115 10
-33 17 -41 40 -43 16 -2 33 2 38 10 8 12 3 90 -8 131 -8 25 43 24 51 -2 20
-64 83 -93 106 -48 12 21 11 21 -8 5 -34 -31 -53 -22 -76 32 -11 28 -26 49
-31 49 -6 -1 -21 -4 -34 -6z"/>
<path d="M2977 3569 c-7 -61 -22 -82 -54 -76 -12 2 -20 0 -17 -4 9 -15 40 -10
57 9 9 10 20 39 23 65 4 30 12 48 23 50 11 3 10 5 -5 6 -18 1 -22 -6 -27 -50z"/>
<path d="M5074 3060 c0 -80 2 -112 3 -72 2 39 2 105 0 145 -1 39 -3 7 -3 -73z"/>
<path d="M5063 2865 c0 -22 2 -30 4 -17 2 12 2 30 0 40 -3 9 -5 -1 -4 -23z"/>
<path d="M5052 2790 c0 -19 2 -27 5 -17 2 9 2 25 0 35 -3 9 -5 1 -5 -18z"/>
<path d="M5036 2719 c-8 -42 0 -50 9 -9 4 17 5 34 2 36 -2 3 -7 -10 -11 -27z"/>
<path d="M5021 2654 c0 -11 3 -14 6 -6 3 7 2 16 -1 19 -3 4 -6 -2 -5 -13z"/>
<path d="M63 2555 c0 -27 2 -38 4 -22 2 15 2 37 0 50 -2 12 -4 0 -4 -28z"/>
<path d="M4981 2539 c-6 -18 -9 -34 -7 -36 2 -2 9 10 15 28 6 18 9 34 7 36 -2
2 -9 -10 -15 -28z"/>
<path d="M4265 2520 c-3 -5 -11 -8 -18 -6 -7 1 -9 1 -4 -1 4 -3 5 -8 3 -12 -3
-4 1 -8 9 -8 8 0 13 3 10 5 -3 3 0 11 6 19 6 7 9 13 6 13 -3 0 -8 -4 -12 -10z"/>
<path d="M45 2338 c-4 -90 -5 -173 -3 -183 2 -11 8 60 12 158 4 99 5 181 3
183 -3 3 -8 -68 -12 -158z"/>
<path d="M4184 2449 c3 -15 36 -21 36 -7 0 6 -6 8 -14 5 -8 -3 -17 -2 -20 4
-2 5 -3 4 -2 -2z"/>
<path d="M4916 2365 c-9 -26 -7 -32 5 -12 6 10 9 21 6 23 -2 3 -7 -2 -11 -11z"/>
<path d="M4140 2355 c-6 -8 -10 -19 -8 -24 1 -6 8 1 15 14 13 28 11 31 -7 10z"/>
<path d="M4866 2224 c-9 -26 -14 -49 -12 -51 2 -2 11 17 20 43 9 26 14 49 12
51 -2 2 -11 -17 -20 -43z"/>
<path d="M1760 2185 c0 -5 5 -17 10 -25 5 -8 10 -10 10 -5 0 6 -5 17 -10 25
-5 8 -10 11 -10 5z"/>
<path d="M1790 2114 c0 -6 7 -19 16 -30 14 -18 14 -18 3 6 -14 31 -19 36 -19
24z"/>
<path d="M1840 2020 c6 -11 13 -20 16 -20 2 0 0 9 -6 20 -6 11 -13 20 -16 20
-2 0 0 -9 6 -20z"/>
<path d="M1860 1986 c0 -2 8 -10 18 -17 15 -13 16 -12 3 4 -13 16 -21 21 -21
13z"/>
<path d="M4679 1948 c-32 -62 -148 -229 -193 -278 -41 -45 -38 -43 23 15 105
101 201 232 201 275 0 18 -19 11 -31 -12z"/>
<path d="M3661 1524 c0 -11 3 -14 6 -6 3 7 2 16 -1 19 -3 4 -6 -2 -5 -13z"/>
</g>
</svg>
